{
  "accessors": [
    {
      "name": "10048_Shrimp_v1_1_0_positions",
      "componentType": 5126,
      "count": 20426,
      "min": [
        -1.3633999824523926,
        -12.6899995803833,
        0.18790000677108765
      ],
      "max": [
        1.3633999824523926,
        11.17300033569336,
        11.39169979095459
      ],
      "type": "VEC3",
      "bufferView": 0,
      "byteOffset": 0
    },
    {
      "name": "10048_Shrimp_v1_1_0_normals",
      "componentType": 5126,
      "count": 20426,
      "min": [
        -1,
        -1,
        -1
      ],
      "max": [
        1,
        1,
        1
      ],
      "type": "VEC3",
      "bufferView": 1,
      "byteOffset": 0
    },
    {
      "name": "10048_Shrimp_v1_1_0_texcoords",
      "componentType": 5126,
      "count": 20426,
      "min": [
        0.017500000074505806,
        0.0142000000923872
      ],
      "max": [
        0.983299970626831,
        0.9818999767303467
      ],
      "type": "VEC2",
      "bufferView": 2,
      "byteOffset": 0
    },
    {
      "name": "10048_Shrimp_v1_1_0_indices",
      "componentType": 5123,
      "count": 110340,
      "min": [
        0
      ],
      "max": [
        20425
      ],
      "type": "SCALAR",
      "bufferView": 3,
      "byteOffset": 0
    }
  ],
  "asset": {
    "generator": "obj2gltf",
    "version": "2.0"
  },
  "buffers": [
    {
      "name": "10048_Shrimp_v1",
      "byteLength": 1143244,
      "uri": "data:application/octet-stream;base64,"
    }
  ],
  "bufferViews": [
    {
      "name": "bufferView_0",
      "buffer": 0,
      "byteLength": 245112,
      "byteOffset": 0,
      "byteStride": 12,
      "target": 34962
    },
    {
      "name": "bufferView_1",
      "buffer": 0,
      "byteLength": 245112,
      "byteOffset": 245112,
      "byteStride": 12,
      "target": 34962
    },
    {
      "name": "bufferView_2",
      "buffer": 0,
      "byteLength": 163408,
      "byteOffset": 490224,
      "byteStride": 8,
      "target": 34962
    },
    {
      "name": "bufferView_3",
      "buffer": 0,
      "byteLength": 220680,
      "byteOffset": 653632,
      "target": 34963
    },
    {
      "buffer": 0,
      "byteOffset": 874312,
      "byteLength": 268932
    }
  ],
  "images": [
    {
      "name": "10048_Shrimp_v1",
      "mimeType": "image/jpeg",
      "bufferView": 4
    }
  ],
  "materials": [
    {
      "name": "10048_Shrimp",
      "pbrMetallicRoughness": {
        "baseColorTexture": {
          "index": 0
        },
        "baseColorFactor": [
          1,
          1,
          1,
          1
        ],
        "metallicFactor": 0,
        "roughnessFactor": 0.946
      },
      "emissiveFactor": [
        0.2352,
        0.2352,
        0.2352
      ],
      "alphaMode": "OPAQUE",
      "doubleSided": false
    }
  ],
  "meshes": [
    {
      "name": "10048_Shrimp_v1_1",
      "primitives": [
        {
          "attributes": {
            "POSITION": 0,
            "NORMAL": 1,
            "TEXCOORD_0": 2
          },
          "indices": 3,
          "material": 0,
          "mode": 4
        }
      ]
    }
  ],
  "nodes": [
    {
      "name": "10048_Shrimp_v1",
      "mesh": 0
    }
  ],
  "samplers": [
    {
      "magFilter": 9729,
      "minFilter": 9986,
      "wrapS": 10497,
      "wrapT": 10497
    }
  ],
  "scene": 0,
  "scenes": [
    {
      "nodes": [
        0
      ]
    }
  ],
  "textures": [
    {
      "name": "10048_Shrimp_v1",
      "sampler": 0,
      "source": 0
    }
  ]
}
